<svg width="45" height="36" viewBox="0 0 45 36" fill="none" xmlns="http://www.w3.org/2000/svg">
<g clip-path="url(#clip0_1_1023)">
<g clip-path="url(#clip1_1_1023)">
<g clip-path="url(#clip2_1_1023)">
<path d="M0 0.0812988H45V21.2396L30.7653 35.129H0V0.0812988Z" fill="#297CF0"/>
<path d="M27.304 13.0551H27.0165C26.8786 13.0558 26.7436 13.0152 26.629 12.9384C26.5144 12.8616 26.4255 12.7522 26.3737 12.6244L25.5122 10.9713C25.3993 10.7259 25.2156 10.5197 24.9847 10.3793C24.7539 10.2389 24.4863 10.1707 24.2164 10.1834H20.2674C20.001 10.1892 19.7409 10.2653 19.5133 10.404C19.2858 10.5427 19.0989 10.739 18.9716 10.9732L18.1818 12.6262C18.13 12.7541 18.0411 12.8635 17.9265 12.9402C17.8119 13.017 17.6769 13.0577 17.539 13.0569H17.2515C16.4908 13.0594 15.7619 13.3626 15.2239 13.9004C14.6859 14.4382 14.3825 15.167 14.3798 15.9278V20.2358C14.3822 20.9967 14.6855 21.7257 15.2236 22.2638C15.7616 22.8018 16.4906 23.1051 17.2515 23.1076H27.304C28.0649 23.1051 28.7939 22.8018 29.3319 22.2638C29.87 21.7257 30.1733 20.9967 30.1757 20.2358V15.9278C30.1735 15.1667 29.8703 14.4375 29.3322 13.8992C28.7942 13.361 28.065 13.0575 27.304 13.0551ZM22.2778 20.2358C21.7098 20.2358 21.1546 20.0674 20.6823 19.7519C20.21 19.4363 19.842 18.9878 19.6246 18.4631C19.4073 17.9383 19.3504 17.3609 19.4612 16.8038C19.572 16.2468 19.8455 15.7351 20.2471 15.3335C20.6487 14.9318 21.1604 14.6583 21.7175 14.5475C22.2746 14.4367 22.852 14.4936 23.3767 14.711C23.9015 14.9283 24.35 15.2964 24.6655 15.7686C24.9811 16.2409 25.1495 16.7961 25.1495 17.3641C25.1471 18.125 24.8437 18.854 24.3057 19.392C23.7677 19.9301 23.0386 20.2334 22.2778 20.2358Z" fill="white"/>
</g>
</g>
</g>
<defs>
<clipPath id="clip0_1_1023">
<rect width="45" height="35.05" fill="white" transform="translate(0 0.0800781)"/>
</clipPath>
<clipPath id="clip1_1_1023">
<rect width="45" height="35.05" fill="white" transform="translate(0 0.0800781)"/>
</clipPath>
<clipPath id="clip2_1_1023">
<rect width="45" height="35.0477" fill="white" transform="translate(0 0.0812988)"/>
</clipPath>
</defs>
</svg>
