<svg width="45" height="36" viewBox="0 0 45 36" fill="none" xmlns="http://www.w3.org/2000/svg">
<g clip-path="url(#clip0_1_944)">
<g clip-path="url(#clip1_1_944)">
<path d="M0 0.0812988H45V21.2396L30.7653 35.129H0V0.0812988Z" fill="#F0294F"/>
<path d="M11.4796 20.2855C13.2548 20.2855 14.6939 18.8464 14.6939 17.0712C14.6939 15.296 13.2548 13.8569 11.4796 13.8569C9.7044 13.8569 8.26532 15.296 8.26532 17.0712C8.26532 18.8464 9.7044 20.2855 11.4796 20.2855Z" fill="white"/>
<path d="M17.1643 13.5447H18.6061V18.8896H21.8021V20.1018H17.1643V13.5447ZM22.6082 13.5447H24.05V20.1018H22.6082V13.5447ZM28.3656 20.1018H26.7401L24.6187 13.5447H26.0972L27.5574 18.1549H27.5758L29.0544 13.5447H30.5421L28.3656 20.1018ZM31.1013 13.5447H36.0053V14.7569H32.5431V16.162H35.7206V17.2824H32.5431V18.8896H36.0788V20.1018H31.1013V13.5447Z" fill="white"/>
</g>
</g>
<defs>
<clipPath id="clip0_1_944">
<rect width="45" height="35.05" fill="white" transform="translate(0 0.0800781)"/>
</clipPath>
<clipPath id="clip1_1_944">
<rect width="45" height="35.0477" fill="white" transform="translate(0 0.0812988)"/>
</clipPath>
</defs>
</svg>
